<?xml version="1.0" encoding="utf-8"?>
<!-- Generator: Adobe Illustrator 19.1.1, SVG Export Plug-In . SVG Version: 6.00 Build 0)  -->
<svg version="1.1" id="Layer_1" xmlns="http://www.w3.org/2000/svg" xmlns:xlink="http://www.w3.org/1999/xlink" x="0px" y="0px"
	 viewBox="0 0 555 144.7" style="enable-background:new 0 0 555 144.7;" xml:space="preserve">
<style type="text/css">
	.st0{fill:url(#SVGID_1_);stroke:url(#SVGID_2_);stroke-miterlimit:10;}
</style>
<linearGradient id="SVGID_1_" gradientUnits="userSpaceOnUse" x1="0.5" y1="72.5494" x2="554.5" y2="72.5494">
	<stop  offset="0" style="stop-color:#3FCCFF"/>
	<stop  offset="3.902942e-002" style="stop-color:#45CDFD"/>
	<stop  offset="9.285182e-002" style="stop-color:#57CFF9"/>
	<stop  offset="0.155" style="stop-color:#74D3F2"/>
	<stop  offset="0.2118" style="stop-color:#95D8EA"/>
	<stop  offset="0.2371" style="stop-color:#6EBDD4"/>
	<stop  offset="0.2719" style="stop-color:#3F9DB8"/>
	<stop  offset="0.3028" style="stop-color:#1D85A5"/>
	<stop  offset="0.3281" style="stop-color:#087698"/>
	<stop  offset="0.3448" style="stop-color:#007194"/>
	<stop  offset="0.3848" style="stop-color:#0085A8"/>
	<stop  offset="0.4325" style="stop-color:#0096B9"/>
	<stop  offset="0.468" style="stop-color:#009CBF"/>
	<stop  offset="0.5" style="stop-color:#08A2C8"/>
	<stop  offset="0.5512" style="stop-color:#1FB4DF"/>
	<stop  offset="0.6059" style="stop-color:#3FCCFF"/>
	<stop  offset="0.6264" style="stop-color:#3AC5F6"/>
	<stop  offset="0.6591" style="stop-color:#2CB1DF"/>
	<stop  offset="0.6998" style="stop-color:#1691B9"/>
	<stop  offset="0.734" style="stop-color:#007194"/>
	<stop  offset="0.7378" style="stop-color:#087698"/>
	<stop  offset="0.7645" style="stop-color:#3A99B5"/>
	<stop  offset="0.7896" style="stop-color:#61B4CC"/>
	<stop  offset="0.8126" style="stop-color:#7EC8DD"/>
	<stop  offset="0.8325" style="stop-color:#8FD4E6"/>
	<stop  offset="0.8473" style="stop-color:#95D8EA"/>
	<stop  offset="0.8593" style="stop-color:#8BD7ED"/>
	<stop  offset="0.9071" style="stop-color:#66D1F5"/>
	<stop  offset="0.9459" style="stop-color:#4FCEFB"/>
	<stop  offset="0.9704" style="stop-color:#47CDFD"/>
	<stop  offset="0.9715" style="stop-color:#47CDFD"/>
	<stop  offset="1" style="stop-color:#3FCCFF"/>
</linearGradient>
<linearGradient id="SVGID_2_" gradientUnits="userSpaceOnUse" x1="-1.668930e-006" y1="72.3633" x2="555" y2="72.3633">
	<stop  offset="0" style="stop-color:#3FCCFF"/>
	<stop  offset="0.4778" style="stop-color:#00617F"/>
	<stop  offset="1" style="stop-color:#3ABBEA"/>
</linearGradient>
<path class="st0" d="M0.5,73.4h53.3l0,65.7c6.8-32.8,16.2-58.4,33.7-61.7v61.7c6.7-29.8,14.5-57,33.7-59.7v61
	c5.2-26.5,12.9-50.6,32.3-63.3c2.6-1.2,5.3-2.4,8.1-3.7l76,0l-0.5,67c6.1-23.3,12.3-46.5,28-60.3l4.7-0.3v59
	c7.4-27.6,15.2-53.7,28.3-58.3l5.3,0v58.7c8.1-31.8,23.2-51,34.1-62.2c1.7-1.7,3.6-3,5.8-3.5l73.5,0v67c4.9-20.9,9.2-42,28.7-60.7
	l6.3-1.3v62c3.9-24.5,7.1-49.4,29.3-62.7h4.3v61.7c6.2-25.2,9.7-51.3,34.4-64.1c2.1-1.2,4.2-1.9,6.3-2.1l28.2,0.3v-7.2h-27.4
	l-6.1-2.1c-21.5-9.3-29.5-32.7-35.2-59.4v56l-7.8-0.3c-11.2-5.6-18.3-27.3-25.3-50l-0.5,49.3l-7.8-0.3c-10.3-4.6-17.9-23.9-25-45.8
	L418,66.5l-75,0.3c-2.6-0.5-4.9-1.8-7.2-3.5c-18.5-10.9-27.3-28.9-31-53.5l-0.3,49l-8.1-0.7c-2.6,0.9-22.3-26.9-26.1-47.8L269.5,62
	c-18.2-10.6-27.6-31.1-32-57.3v63l-75.2,0c-9-0.8-39-31.5-41.3-61.5l0.5,54.3c-0.1,0.9-7,1.1-8,0.8c-10.7-1.6-20.2-26.1-26-54.8V62
	L81,60.7c0,0-26.1-15.8-26.1-56c0-1.5-0.9,61.8-0.9,61.8L0.5,66.2V73.4z"/>
</svg>
